<?xml version="1.0" encoding="UTF-8" standalone="no"?>
<svg width="179px" height="20px" viewBox="0 0 179 20" version="1.1" xmlns="http://www.w3.org/2000/svg" xmlns:xlink="http://www.w3.org/1999/xlink" xmlns:sketch="http://www.bohemiancoding.com/sketch/ns">
    <title>made--neg</title>
    <description>Created with Sketch (http://www.bohemiancoding.com/sketch)</description>
    <defs></defs>
    <g id="Page-1" stroke="none" stroke-width="1" fill="none" fill-rule="evenodd" sketch:type="MSPage">
        <g id="made--neg" sketch:type="MSArtboardGroup" fill="#FFFFFF">
            <path d="M99.4584832,17.2869097 C98.1972026,17.2869097 97.3562466,16.2664065 97.3562466,14.434258 C97.3562466,12.662112 98.3471322,11.6109169 99.5187926,11.6109169 C100.148742,11.6109169 100.569527,11.8507736 101.050315,12.2715585 L102.462292,10.6788062 C101.771419,9.98900743 100.719303,9.38790803 99.4884077,9.38790803 C96.9650793,9.38790803 94.7112251,11.2499811 94.7118389,14.5244919 C94.7118389,17.8591587 96.8746919,19.5105324 99.4284052,19.5105324 C100.629376,19.5105324 101.75592,19.0305123 102.582144,18.0689374 L101.17078,16.5064165 C100.749995,16.9566656 100.209359,17.2869097 99.4584832,17.2869097 Z M110.198167,13.2101145 L107.284745,13.2101145 L107.284745,9.57558854 L104.701721,9.57558854 L104.702488,19.3377374 L107.285359,19.3377374 L107.285359,15.462741 L110.198781,15.462741 L110.198781,19.3377374 L112.781805,19.3377374 L112.781805,9.57558854 L110.198167,9.57558854 L110.198167,13.2101145 Z M119.891873,9.38775457 C117.187463,9.38775457 115.355468,11.1907459 115.355468,14.4040265 C115.355468,17.6176141 117.187463,19.510379 119.891873,19.510379 C122.595516,19.510379 124.427971,17.6176141 124.427971,14.4040265 C124.427971,11.2047106 122.595209,9.38775457 119.891873,9.38775457 Z M119.890492,17.28737 C118.718831,17.28737 117.998034,16.1755587 117.998034,14.4040265 C117.998034,12.6324943 118.718524,11.6109169 119.890492,11.6109169 C121.061999,11.6109169 121.783257,12.6314201 121.783257,14.4040265 C121.783257,16.1757121 121.061999,17.28737 119.890492,17.28737 Z M130.757239,9.56745521 L126.97171,9.56745521 L126.97171,19.3302179 L129.554427,19.3302179 L129.554427,16.236175 L130.757239,16.236175 C132.799013,16.236175 134.66124,15.2003259 134.66124,12.8118881 C134.66124,10.3488691 132.859169,9.56745521 130.757239,9.56745521 Z M130.635853,14.193941 L129.554427,14.193941 L129.554427,11.6103031 L130.635853,11.6103031 C131.597121,11.6103031 132.137451,11.9407006 132.137451,12.8115811 C132.137451,13.683229 131.656817,14.193941 130.635853,14.193941 Z M142.022981,13.7122328 L140.835514,13.2469447 C139.950362,12.9012013 139.394686,12.7362327 139.394686,12.2706377 C139.394686,11.8355811 139.784626,11.6104566 140.415343,11.6104566 C141.135527,11.6104566 141.706241,11.8498528 142.368571,12.3154478 L143.659469,10.6938452 C142.759124,9.80838604 141.527001,9.38698727 140.415343,9.38698727 C138.282722,9.38698727 136.780817,10.7541546 136.780817,12.4210277 C136.780817,13.8330051 137.697122,14.7186177 138.747856,15.1400165 L139.96448,15.6495008 C140.78963,15.9800517 141.286837,16.1305951 141.286837,16.5958832 C141.286837,17.0321675 140.956286,17.287677 140.175179,17.287677 C139.454996,17.287677 138.583348,16.8968166 137.892475,16.3412945 L136.420188,18.113594 C137.471076,19.0587487 138.881826,19.5085374 140.115024,19.5085374 C142.547504,19.5085374 143.928943,18.0373248 143.928943,16.3851838 C143.929557,15.0336693 143.23807,14.1930202 142.022981,13.7122328 Z M145.663799,11.7303081 L148.246209,11.7303081 L148.246209,19.3303714 L150.829233,19.3303714 L150.829233,11.7303081 L153.413485,11.7303081 L153.413485,9.56745521 L145.663799,9.56745521 L145.663799,11.7303081 Z M155.564214,9.56745521 L158.147238,9.56745521 L158.147238,19.3303714 L155.564214,19.3303714 L155.564214,9.56745521 Z M165.405701,17.2869097 C164.14304,17.2869097 163.302237,16.2664065 163.302237,14.434258 C163.302237,12.662112 164.294657,11.6109169 165.465704,11.6109169 C166.096574,11.6109169 166.516899,11.8507736 166.997533,12.2715585 L168.409971,10.6788062 C167.717256,9.98900743 166.666675,9.38790803 165.435166,9.38790803 C162.911991,9.38790803 160.659057,11.2499811 160.659671,14.5244919 C160.659671,17.8591587 162.823291,19.5105324 165.37547,19.5105324 C166.577362,19.5105324 167.702524,19.0305123 168.529209,18.0689374 L167.117845,16.5064165 C166.6966,16.9566656 166.156884,17.2869097 165.405701,17.2869097 Z M175.665058,13.533146 L178.578633,9.56745521 L175.754678,9.56745521 L173.291506,13.2018277 L173.232117,13.2018277 L173.232117,9.56745521 L170.647712,9.56745521 L170.647712,9.56730175 L170.647405,9.56730175 L170.647405,19.3296041 L173.231043,19.3296041 L173.231043,16.8962027 L174.162233,15.5750731 L176.324779,19.3297576 L179.14904,19.3297576 L175.665058,13.533146 Z M84.0247919,19.3391186 L86.6078159,19.3391186 L91.0018111,9.57558854 L88.4187871,9.57558854 L84.0247919,19.3391186 Z M82.8919566,9.57558854 L78.4976545,19.3377374 L81.0806785,19.3377374 L85.4748272,9.57558854 L82.8919566,9.57558854 Z" id="chopstick" sketch:type="MSShapeGroup"></path>
            <path d="M92.0465608,0.623857295 C91.4663319,0.623857295 90.7443067,0.985406998 90.1626966,1.56717055 C90.0836651,1.64589508 90.0104651,1.72814917 89.9398739,1.8110171 C89.8697431,1.72860955 89.7965431,1.64681583 89.7170513,1.56732401 C89.1354412,0.985560457 88.413416,0.624010754 87.8333405,0.624010754 C87.5391594,0.624010754 87.2913229,0.716700067 87.1166864,0.891336553 C86.8485933,1.15927619 86.7792298,1.58527872 86.9217933,2.09046617 C87.05607,2.56634292 87.3654436,3.06401087 87.7928273,3.49139454 C88.3745908,4.07315809 89.096616,4.43440087 89.6766915,4.43440087 C89.7703016,4.43440087 89.8571595,4.42166377 89.9404878,4.40370905 C90.0233557,4.42166377 90.1099066,4.43409396 90.2029029,4.43409396 C90.7831318,4.43409396 91.505157,4.07300463 92.0867671,3.49139454 C93.0053735,2.57278821 93.3026238,1.43059192 92.7630615,0.891029635 C92.588425,0.716393148 92.3405885,0.623857295 92.0465608,0.623857295 L92.0465608,0.623857295 Z M87.1984801,2.01220202 C87.0856876,1.61198061 87.1288096,1.28603343 87.3201732,1.0946699 C87.4414059,0.973283727 87.6140474,0.912206994 87.8333405,0.912206994 C88.3400625,0.912206994 88.9838236,1.24122336 89.513411,1.77096427 C89.6013431,1.85874289 89.6822161,1.94974415 89.7575645,2.04228 C89.5394991,2.34336681 89.3785204,2.66041337 89.2916626,2.96840583 C89.1560047,3.4487329 89.2144726,3.85570651 89.4509532,4.12518073 C88.9875066,4.04676312 88.4503996,3.74183983 87.9964676,3.2880612 C87.6031518,2.89443854 87.3198663,2.44142719 87.1984801,2.01220202 L87.1984801,2.01220202 Z M90.1897054,3.96404865 C90.1226438,4.03095683 90.0382412,4.07791532 89.9404878,4.10783985 C89.8421205,4.07806878 89.7575645,4.03095683 89.6901959,3.96389519 C89.4989859,3.77253166 89.4557104,3.44658447 89.5686563,3.04620961 C89.639401,2.79591778 89.7704551,2.53841336 89.9411016,2.2885819 C90.388435,2.94799577 90.5136576,3.63994297 90.1897054,3.96404865 L90.1897054,3.96404865 Z M92.6814212,2.01174164 C92.5600351,2.44127373 92.2767495,2.89428508 91.8834338,3.28744736 C91.4298086,3.74107254 90.8930086,4.04538199 90.4297155,4.12425998 C90.8319318,3.66434298 90.6921306,2.82630268 90.1224903,2.04197309 C90.198606,1.94943723 90.2788651,1.85782213 90.3663368,1.77035043 C90.8962312,1.24091644 91.5399923,0.911439699 92.0467143,0.911439699 C92.2658539,0.911439699 92.4384954,0.972976808 92.5595747,1.09420952 C92.7510917,1.28572651 92.7939068,1.61167369 92.6814212,2.01174164 L92.6814212,2.01174164 Z" id="The-Fly" sketch:type="MSShapeGroup"></path>
            <path d="M1.31784201,9.47154325 L2.79166347,9.47154325 L4.70176922,14.7655762 L5.42364095,16.7809549 L5.48395039,16.7809549 L6.17574413,14.7655762 L8.07081089,9.47154325 L9.54463235,9.47154325 L9.54463235,19.3377374 L8.35655179,19.3377374 L8.35655179,13.9083535 C8.35655179,13.0360919 8.44678575,11.8628968 8.52198072,10.9904817 L8.46182475,10.9904817 L7.66475804,13.1864818 L5.76953783,18.3451638 L5.06270509,18.3451638 L3.15259934,13.1864818 L2.37057162,10.9904817 L2.31041565,10.9904817 C2.37057162,11.8628968 2.47584459,13.0360919 2.47584459,13.9083535 L2.47584459,19.3377374 L1.31784201,19.3377374 L1.31784201,9.47154325 Z M16.7630428,16.3297851 L13.1684162,16.3297851 L12.2208061,19.3377374 L10.9424915,19.3377374 L14.2814552,9.47154325 L15.6951207,9.47154325 L19.0340844,19.3377374 L17.6954604,19.3377374 L16.7630428,16.3297851 Z M16.4470704,15.3221725 L15.9808616,13.8181196 C15.6199257,12.720273 15.3041068,11.6373119 14.988288,10.4941949 L14.928132,10.4941949 C14.6273521,11.6373119 14.3113797,12.720273 13.9504439,13.8181196 L13.4842351,15.3221725 L16.4470704,15.3221725 Z M20.432097,9.47154325 L22.8986456,9.47154325 C25.9366759,9.47154325 27.5610408,11.2312591 27.5610408,14.3595234 C27.5610408,17.5028267 25.9366759,19.3377374 22.9588015,19.3377374 L20.432097,19.3377374 L20.432097,9.47154325 Z M22.8084116,18.3150858 C25.1095312,18.3150858 26.2676872,16.8561499 26.2676872,14.3595234 C26.2676872,11.8779358 25.1095312,10.4941949 22.8084116,10.4941949 L21.6803336,10.4941949 L21.6803336,18.3150858 L22.8084116,18.3150858 Z M29.6809251,9.47154325 L35.3659719,9.47154325 L35.3659719,10.5242729 L30.9291617,10.5242729 L30.9291617,13.6226126 L34.6741782,13.6226126 L34.6741782,14.6903812 L30.9291617,14.6903812 L30.9291617,18.2698154 L35.5165154,18.2698154 L35.5165154,19.3377374 L29.6809251,19.3377374 L29.6809251,9.47154325 Z" id="made" sketch:type="MSShapeGroup"></path>
            <path d="M39.6364325,9.47154325 L40.9297861,9.47154325 L41.9676301,14.8407712 C42.1480981,15.9086932 42.3587974,16.9614229 42.5391119,18.0291915 L42.5992679,18.0291915 C42.8250063,16.9614229 43.0654767,15.8936543 43.2912151,14.8407712 L44.659917,9.47154325 L45.8028806,9.47154325 L47.1715826,14.8407712 C47.4122065,15.8786153 47.6528304,16.9614229 47.8934543,18.0291915 L47.9536103,18.0291915 C48.1340782,16.9614229 48.3145462,15.8936543 48.5100531,14.8407712 L49.5478972,9.47154325 L50.7511702,9.47154325 L48.70556,19.3377374 L47.2016606,19.3377374 L45.7126467,13.3970277 C45.5321787,12.630039 45.3817888,11.9230528 45.2313988,11.1560641 L45.1712429,11.1560641 C45.0208529,11.9230528 44.8402315,12.630039 44.6748026,13.3970277 L43.2160201,19.3377374 L41.7270062,19.3377374 L39.6364325,9.47154325 Z M52.4646948,9.47154325 L53.7129313,9.47154325 L53.7129313,19.3377374 L52.4646948,19.3377374 L52.4646948,9.47154325 Z M58.4651001,10.5242729 L55.4872257,10.5242729 L55.4872257,9.47154325 L62.7064034,9.47154325 L62.7064034,10.5242729 L59.7285291,10.5242729 L59.7285291,19.3377374 L58.4651001,19.3377374 L58.4651001,10.5242729 Z M64.4805444,9.47154325 L65.7289344,9.47154325 L65.7289344,13.6075736 L70.3161346,13.6075736 L70.3161346,9.47154325 L71.5795636,9.47154325 L71.5795636,19.3377374 L70.3161346,19.3377374 L70.3161346,14.6903812 L65.7289344,14.6903812 L65.7289344,19.3377374 L64.4805444,19.3377374 L64.4805444,9.47154325 Z" id="with" sketch:type="MSShapeGroup"></path>
        </g>
    </g>
</svg>